<?xml version="1.0" encoding="UTF-8"?>
<svg xmlns="http://www.w3.org/2000/svg" version="1.1" viewBox="0 0 1111.1 355.8">
  <!-- Generator: Adobe Illustrator 29.1.0, SVG Export Plug-In . SVG Version: 2.1.0 Build 142)  -->
  <defs>
    <style>
      .st0 {
        fill: #fff;
      }

      .st1 {
        fill: #bbb;
      }
    </style>
  </defs>
  <g id="Camada_1">
    <g>
      <path class="st0" d="M243.1,259.3c0-3.2,3.5-6.2,10-6.2s7.6,1.6,7.6,5.3,0,1.1-.2,2.1h15.4c.4-2.1.7-3.7.7-5.3,0-7.8-9.5-11.9-21.5-11.9s-27.8,8.2-27.8,19c0,17.7,29.5,12.4,29.5,21.3s-4.8,6.2-11.1,6.2-9.5-2.1-9.5-6,0-1.2.2-2.5h-15.2c-.2,2-.4,3.4-.4,4.8,0,10.5,11.5,13.5,23,13.5,17.8,0,29.5-7.4,29.5-18.8,0-18.3-30.2-11.9-30.2-21.4M355,299.6c16.3,0,26.7-8,26.7-17.7s-2.6-9.9-11.7-11.5c8.5-1.1,15.8-6.7,15.8-14.5s-5.8-12.4-16-12.4h-30.2l-12.4,56.2h27.8ZM435.8,284.3c0-7.1-1.7-10.8-10.8-12.4,10.8-.7,18.6-6.9,18.6-15.4s-6.5-13.1-18-13.1h-29.5l-12.8,56.2h16.9l5-21.8h7.8c2.2,0,6.5,0,6.5,5.8s-.9,10.1-1.1,16h17.3c-.2-6,.2-11,.2-15.2M294.1,288.8l2.8-12.1h26.5l2.4-10.8h-26.5l2.6-11.5h28.4l2.4-10.8h-44.9l-12.6,56h45.5l2.4-10.8h-28.9ZM558.3,243.5h-44.9l-12.6,56h45.5l2.4-10.8h-29.1l2.6-12.1h27.1l2.4-10.8h-27.1l2.6-11.5h28.8l2.4-10.8ZM435.7,299.6h16.3l5.9-10.6h21.5l.9,10.6h16.9l-8.2-55.8h-20.2l-33.2,55.8ZM362.2,253.3c4.1,0,6.7,1.8,6.7,5.7s-2.8,6.9-8.5,6.9h-9.6l2.8-12.6h8.7ZM407.6,267.7l3-13.8h7.2c2.6,0,8.9,0,8.9,5.8s-4.1,8-10.8,8h-8.3ZM476.7,255.1h.2l1.9,23.2h-14.8l12.8-23.2ZM357,276c2.6,0,7.8.5,7.8,6.2s-3.3,7.1-10,7.1h-9.3l3-13.3h8.5Z"/>
      <g>
        <path class="st0" d="M220.9,196.9l30.7-140.6h90.4l-5.3,24.1h-63.9l-7.3,33.5h58.2l-5.3,24.1h-58.2l-7.6,34.7h65.1l-5.3,24.1h-91.6Z"/>
        <path class="st0" d="M369.7,199.7c-13,0-23-2.8-30.1-8.4-7.1-5.6-10.3-13.7-9.8-24.1l24.6-6c0,4.7.7,8.4,2.3,11,1.6,2.7,3.9,4.6,7,5.7,3,1.1,6.5,1.7,10.4,1.7,5.9,0,10.5-1,13.7-3.1s5.2-4.7,5.9-7.7c.7-3.1-.1-5.5-2.5-7.1-2.3-1.7-6.3-3-12-4.1l-5.4-1c-6.7-1.3-12.6-3.2-17.9-5.5-5.2-2.3-9.2-5.6-11.7-9.7-2.6-4.2-3.2-9.5-1.7-16.1,2.2-9.9,7.4-17.5,15.8-22.8,8.4-5.3,18.5-7.9,30.2-7.9s19.8,2.5,26.1,7.4c6.3,5,9.7,11.4,10.2,19.5l-25.1,7.2c0-5.1-1.3-8.7-4.2-10.8-2.8-2.1-6.6-3.2-11.5-3.2s-8.7.8-11.6,2.5c-2.9,1.7-4.7,4-5.3,6.9-.7,3.2.1,5.6,2.5,7.1,2.3,1.5,5.7,2.7,10.1,3.5l5.4,1c7.2,1.3,13.6,3.1,19.2,5.3,5.6,2.2,9.7,5.4,12.4,9.4,2.6,4.1,3.2,9.6,1.7,16.6-2.3,10.4-7.8,18.5-16.6,24.2-8.8,5.7-19.6,8.5-32.3,8.5Z"/>
        <path class="st0" d="M471.1,199.7c-9.6,0-17.9-2-24.9-6-7-4-11.9-9.8-14.8-17.5-2.9-7.6-3.2-16.9-.8-27.7l.6-2.8c2.4-10.9,6.7-20.1,12.9-27.7,6.2-7.6,13.7-13.5,22.4-17.5,8.7-4,17.9-6,27.5-6s17.3,1.7,23.4,5c6.1,3.4,10.6,7.9,13.6,13.8,2.9,5.8,4.3,12.4,4,19.8l-25.6,5.2c.3-4,0-7.6-1.2-10.9-1.2-3.2-3.3-5.8-6.3-7.6-3-1.9-7.1-2.8-12.1-2.8s-9.9,1.1-14.5,3.3c-4.6,2.2-8.5,5.5-11.8,9.8-3.3,4.4-5.6,9.7-7,16l-.4,2c-1.4,6.3-1.4,11.6,0,16,1.4,4.3,3.9,7.6,7.5,9.8,3.6,2.2,7.9,3.3,13,3.3,7.6,0,13.9-2,18.7-5.9,4.8-3.9,8.4-9.1,10.9-15.6l23.2,5.8c-3.3,7.1-7.7,13.6-13.2,19.4-5.5,5.8-12,10.4-19.6,13.8-7.6,3.4-16.1,5-25.6,5Z"/>
        <path class="st0" d="M652.2,196.9l30.7-140.6h25.3l-30.7,140.6h-25.3Z"/>
        <path class="st0" d="M853.6,199.7c-7.9,0-14.9-2-20.9-5.9-6-4-10.3-9.7-12.8-17.4-2.5-7.6-2.5-16.9-.2-27.7l.7-3.2c2.4-10.8,6.5-20.1,12.3-27.7,5.8-7.6,12.6-13.4,20.3-17.4,7.7-4,15.5-5.9,23.6-5.9s10.9.7,14.7,2.1c3.8,1.4,6.7,3.2,8.8,5.3,2.1,2.1,3.5,4.4,4.3,6.8h3.6l11.4-52.4h25.3l-30.7,140.6h-24.9l2.6-12h-3.6c-3.1,3.7-7.3,7.2-12.8,10.2-5.4,3.1-12.7,4.6-21.8,4.6ZM866,177.6c7.8,0,14.8-2.5,21.1-7.5,6.3-5,10.5-12.4,12.6-22l.4-2c2.1-9.6,1.1-17-2.9-22-4.1-5-10-7.5-17.9-7.5s-14.8,2.5-21.1,7.5c-6.3,5-10.5,12.3-12.6,22l-.4,2c-2.1,9.6-1.1,17,3,22,4.1,5,10.1,7.5,17.8,7.5Z"/>
        <path class="st0" d="M792.6,97.3l-2.6,12h-3.6c-1.5-3.7-4.2-7.2-8.3-10.2-4.1-3.1-10.7-4.6-19.8-4.6s-15.7,2-23.5,5.9c-7.8,4-14.5,9.7-20.4,17.4s-9.9,16.9-12.3,27.7l-.3,1.6h0s-.3,1.6-.3,1.6c-2.4,10.8-2.3,20.1.2,27.7,2.5,7.6,6.8,13.4,12.8,17.4,6,3.9,13,5.9,20.9,5.9s16.4-1.5,21.8-4.6c5.4-3.1,9.7-6.5,12.8-10.2h3.6l-2.6,12h24.9l10.9-49.8h0s10.9-49.8,10.9-49.8h-24.9ZM781.7,147.1l-.2,1c-2.1,9.6-6.3,17-12.6,22-6.3,5-13.4,7.5-21.1,7.5s-13.7-2.5-17.8-7.5c-4.1-5-5.1-12.4-3-22l.2-1h0s.2-1,.2-1c2.1-9.6,6.3-17,12.6-22,6.3-5,13.4-7.5,21.1-7.5s13.7,2.5,17.8,7.5c4.1,5,5.1,12.4,3,22l-.2,1h0Z"/>
        <path class="st0" d="M1029.2,97.3l-2.6,12h-3.6c-1.5-3.7-4.2-7.2-8.3-10.2-4.1-3.1-10.7-4.6-19.8-4.6s-15.7,2-23.5,5.9c-7.8,4-14.5,9.7-20.4,17.4-5.8,7.6-9.9,16.9-12.3,27.7l-.3,1.6h0s-.3,1.6-.3,1.6c-2.4,10.8-2.3,20.1.2,27.7,2.5,7.6,6.8,13.4,12.8,17.4,6,3.9,13,5.9,20.9,5.9s16.4-1.5,21.8-4.6c5.4-3.1,9.7-6.5,12.8-10.2h3.6l-2.6,12h24.9l10.9-49.8h0s10.9-49.8,10.9-49.8h-24.9ZM1018.3,147.1l-.2,1c-2.1,9.6-6.3,17-12.6,22-6.3,5-13.4,7.5-21.1,7.5s-13.7-2.5-17.8-7.5c-4.1-5-5.1-12.4-3-22l.2-1h0s.2-1,.2-1c2.1-9.6,6.3-17,12.6-22,6.3-5,13.4-7.5,21.1-7.5s13.7,2.5,17.8,7.5c4.1,5,5.1,12.4,3,22l-.2,1h0Z"/>
        <path class="st0" d="M632.2,97.3l-2.6,12h-3.6c-1.5-3.7-4.2-7.2-8.3-10.2-4.1-3.1-10.7-4.6-19.8-4.6s-15.7,2-23.5,5.9c-7.8,4-14.5,9.7-20.4,17.4-5.8,7.6-9.9,16.9-12.3,27.7l-.3,1.6h0s-.3,1.6-.3,1.6c-2.4,10.8-2.3,20.1.2,27.7,2.5,7.6,6.8,13.4,12.8,17.4,6,3.9,13,5.9,20.9,5.9s16.4-1.5,21.8-4.6c5.4-3.1,9.7-6.5,12.8-10.2h3.6l-2.6,12h24.9l10.9-49.8h0s10.9-49.8,10.9-49.8h-24.9ZM621.3,147.1l-.2,1c-2.1,9.6-6.3,17-12.6,22-6.3,5-13.4,7.5-21.1,7.5s-13.7-2.5-17.8-7.5c-4.1-5-5.1-12.4-3-22l.2-1h0s.2-1,.2-1c2.1-9.6,6.3-17,12.6-22,6.3-5,13.4-7.5,21.1-7.5s13.7,2.5,17.8,7.5c4.1,5,5.1,12.4,3,22l-.2,1h0Z"/>
      </g>
      <g>
        <polygon class="st0" points="137.2 56.1 118.8 140.6 175.1 140.6 162.8 196.9 190.9 196.9 221.6 56.1 137.2 56.1"/>
        <polygon class="st1" points="74.7 84.3 56.3 168.7 112.6 168.7 131 84.3 74.7 84.3"/>
      </g>
    </g>
  </g>
</svg>